# xmcd
#
# Track frame offsets:
#	150
#	16475
#	31763
#	53656
#	68038
#	82663
#	97963
#	111913
#	125285
#	146480
#	161470
#	176395
#	193570
#	209906
#	227831
#
# Disc length: 3229 seconds
# Revision: 0
# Processed by: cddbd v1.5.2PL0 Copyright (c) Steve Scherf et al.
# Submitted via: dBpowerAMP V12.0
#
DISCID=bd0c9b0f
DTITLE=Various Artist - Baladas 2010
DYEAR=2010
DGENRE=Ballad
TTITLE0=Los Chicos de la Calle - I Know You Want Me
TTITLE1=Samuel Disk - When Love Takes Over
TTITLE2=Krissthine - Bad Romance
TTITLE3=Project Cover Gang - Lo Hecho Hecho Está
TTITLE4=Samuel Disk ft. True Love - Sexy Bitch
TTITLE5=Milly Rush - 3
TTITLE6=Donna - Release Me
TTITLE7=Van Cool - Dangerous
TTITLE8=TNT - Meet Me Halfway
TTITLE9=Melanie Luv - Celebration
TTITLE10=Van Cool - Fever
TTITLE11=Milly Rush - Radar
TTITLE12=Sashy Morgan - This Is It
TTITLE13=Sabrina Reed - Happy
TTITLE14=Project Cover Gang - Did It Again
EXTD=
EXTT0=
EXTT1=
EXTT2=
EXTT3=
EXTT4=
EXTT5=
EXTT6=
EXTT7=
EXTT8=
EXTT9=
EXTT10=
EXTT11=
EXTT12=
EXTT13=
EXTT14=
PLAYORDER=
